<?xml version="1.0" encoding="utf-8"?>
<!-- Generator: Adobe Illustrator 26.2.1, SVG Export Plug-In . SVG Version: 6.00 Build 0)  -->
<svg version="1.1" id="Layer_1" xmlns="http://www.w3.org/2000/svg" xmlns:xlink="http://www.w3.org/1999/xlink" x="0px" y="0px"
	 viewBox="0 0 2000 2000" style="enable-background:new 0 0 2000 2000;" xml:space="preserve">
<g>
	<path fill="#ffffff" d="M1654.51,1941.51h-68.96c-66.53,0-119.25-56.22-114.95-122.6C1528.56,923.48,970.57,785.78,730.84,767.7
		c-59.99-4.53-106.19-54.88-106.19-115.04V196.89c0-63.63,51.58-115.21,115.21-115.21h74.6c64.96,0,117.07,53.67,115.16,118.6
		l-4.97,168.75c-2.73,92.81,99.55,150.14,177.77,100.13c137.07-87.64,245.7-260.2,296.29-351.03
		C1419.05,81.61,1457.55,59,1499.35,59h0c79.25,0,134.64,78.1,108.85,153.04c-52.13,151.5-141.97,263.86-251.37,360.95
		c-54.51,48.37-52.24,134.67,6.11,178.33c329.75,246.74,394.37,819.1,406.66,1069.38
		C1772.82,1886.47,1720.35,1941.51,1654.51,1941.51z"/>
	<path fill="#ffffff" d="M1279.36,1941.51h-79.62c-64.44,0-116.57-52.88-115.18-117.31c12.06-560.74-266.24-643.98-430.11-644.69
		c-63.94-0.28-115.98,51.28-115.98,115.23v531.57c0,63.63-51.58,115.21-115.21,115.21h-78.04c-63.63,0-115.21-51.58-115.21-115.21
		V196.89c0-63.63,51.58-115.21,115.21-115.21h78.04c63.63,0,115.21,51.58,115.21,115.21v533.9c0,61.48,48.26,112.52,109.69,115.08
		c741.71,30.92,765.51,718.85,746.14,988.55C1389.95,1894.75,1339.85,1941.51,1279.36,1941.51z"/>
</g>
</svg>
